<?xml version="1.0" encoding="utf-8"?>
<!-- Generator: Adobe Illustrator 14.0.0, SVG Export Plug-In . SVG Version: 6.00 Build 43363)  -->
<!DOCTYPE svg PUBLIC "-//W3C//DTD SVG 1.1//EN" "http://www.w3.org/Graphics/SVG/1.1/DTD/svg11.dtd">
<svg version="1.1" id="图层_1" xmlns="http://www.w3.org/2000/svg" xmlns:xlink="http://www.w3.org/1999/xlink" x="0px" y="0px"
	 width="34.063px" height="10.571px" viewBox="0 0 34.063 10.571" enable-background="new 0 0 34.063 10.571" xml:space="preserve">
<g>
	<path d="M2.899,7.412c0.07,0,0.127,0.02,0.17,0.059C3.128,7.525,3.151,7.6,3.14,7.693c-0.02,0.164-0.131,0.504-0.334,1.02
		c-0.262,0.672-0.498,1.121-0.709,1.348c-0.191,0.203-0.441,0.305-0.75,0.305c-0.457,0-0.816-0.135-1.078-0.404
		C0.147,9.836,0.087,9.713,0.087,9.592c0-0.301,0.479-0.779,1.436-1.436C2.245,7.66,2.704,7.412,2.899,7.412z M1.569,5.824
		c0.25,0,0.514,0.152,0.791,0.457c0.148,0.164,0.223,0.322,0.223,0.475c0,0.148-0.078,0.277-0.234,0.387
		c-0.113,0.078-0.301,0.15-0.563,0.217C1.403,7.453,1.034,7.5,0.679,7.5c-0.375,0-0.563-0.107-0.563-0.322
		c0-0.172,0.188-0.445,0.563-0.82C1.034,6.002,1.331,5.824,1.569,5.824z M1.815,2.924c-0.043,0-0.109,0-0.199,0
		C0.968,2.916,0.575,2.867,0.438,2.777c-0.066-0.047-0.1-0.109-0.1-0.188c0-0.141,0.143-0.273,0.428-0.398
		c0.301-0.133,0.824-0.303,1.57-0.51C2.321,1.709,2.286,1.775,2.231,1.881C2.071,2.189,1.933,2.537,1.815,2.924z M1.997,3.732
		c0.238,0,0.492,0.152,0.762,0.457c0.145,0.16,0.217,0.318,0.217,0.475c0,0.148-0.076,0.277-0.229,0.387
		C2.634,5.129,2.45,5.201,2.196,5.268c-0.375,0.094-0.738,0.141-1.09,0.141c-0.375,0-0.563-0.107-0.563-0.322
		c0-0.176,0.188-0.449,0.563-0.82C1.466,3.91,1.763,3.732,1.997,3.732z M3.438,0.27c0.105,0,0.223,0.195,0.352,0.586
		c0.238,0.719,0.357,1.32,0.357,1.805c0,0.363-0.211,0.631-0.633,0.803C3.19,3.592,2.864,3.656,2.536,3.656
		c-0.352,0-0.527-0.135-0.527-0.404c0-0.387,0.338-1.205,1.014-2.455C3.214,0.445,3.353,0.27,3.438,0.27z M5.278,5.607
		c0.047,0.215,0.119,0.729,0.217,1.541c0.074,0.637,0.156,1.02,0.246,1.148c0.063,0.086,0.158,0.129,0.287,0.129
		c0.219,0,1.014-0.295,2.385-0.885c0.25-0.109,0.428-0.164,0.533-0.164c0.176,0,0.344,0.164,0.504,0.492
		C9.743,8.471,9.89,8.934,9.89,9.258c0,0.172-0.109,0.301-0.328,0.387c-0.348,0.137-0.963,0.271-1.846,0.404
		c-1.203,0.18-2.385,0.27-3.545,0.27c-0.727,0-1.09-0.27-1.09-0.809c0-0.355,0.422-1.613,1.266-3.773
		c0.023-0.059,0.039-0.1,0.047-0.123c0.18,0,0.387-0.002,0.621-0.006H5.278z M6.714,5.314H6.263c-0.684,0-1.189,0.006-1.518,0.018
		c-0.16,0.004-0.266,0.006-0.316,0.006c-0.57,0-0.908-0.039-1.014-0.117C3.333,5.162,3.292,5.084,3.292,4.986
		c0-0.184,0.256-0.391,0.768-0.621c0.359-0.164,0.857-0.363,1.494-0.598c0.742-0.27,1.271-0.404,1.588-0.404
		c0.484,0,0.938,0.363,1.359,1.09c0.219,0.375,0.4,0.754,0.545,1.137C9.202,6.004,9.28,6.303,9.28,6.486
		c0,0.215-0.104,0.389-0.311,0.521C8.653,7.223,8.136,7.387,7.417,7.5C7.019,7.563,6.69,7.594,6.433,7.594
		c-0.387,0-0.58-0.119-0.58-0.357c0-0.133,0.072-0.281,0.217-0.445c0.031-0.039,0.184-0.195,0.457-0.469
		C6.94,5.904,7.147,5.633,7.147,5.508C7.147,5.379,7.003,5.314,6.714,5.314z M4.188,1.365c0.633-0.117,1.322-0.221,2.068-0.311
		c-0.43,0.789-0.682,1.338-0.756,1.646L5.302,2.713c-0.328,0.02-0.635,0.035-0.92,0.047c0.004-0.055,0.006-0.084,0.006-0.088
		C4.388,2.34,4.325,1.916,4.2,1.4L4.188,1.365z M7.282,0C7.388,0,7.497,0.197,7.61,0.592c0.18,0.633,0.27,1.211,0.27,1.734
		c0,0.348-0.152,0.6-0.457,0.756c-0.316,0.16-0.676,0.24-1.078,0.24c-0.422,0-0.633-0.145-0.633-0.434
		c0-0.273,0.342-1.01,1.025-2.209C6.995,0.227,7.177,0,7.282,0z M7.921,0.979C8.257,1.014,8.562,1.107,8.835,1.26
		C9.226,1.471,9.421,1.73,9.421,2.039c0,0.145-0.07,0.258-0.211,0.34s-0.502,0.15-1.084,0.205L8.091,2.59
		c0.004-0.117,0.006-0.209,0.006-0.275C8.097,1.818,8.038,1.373,7.921,0.979z"/>
	<path d="M14.782,5.9c0.203,0,0.305,0.133,0.305,0.398c0,0.465-0.09,1.1-0.27,1.904c-0.121,0.523-0.273,0.875-0.457,1.055
		c-0.191,0.188-0.475,0.281-0.85,0.281c-0.453,0-0.846-0.094-1.178-0.281c-0.273-0.148-0.4-0.342-0.381-0.58
		c0.031-0.355,0.514-0.961,1.447-1.816C14.095,6.221,14.556,5.9,14.782,5.9z M19.728,3.586c0.48,0,0.916,0.127,1.307,0.381
		c0.367,0.242,0.551,0.504,0.551,0.785c0,0.27-0.215,0.451-0.645,0.545c-0.512,0.113-1.771,0.209-3.779,0.287
		c-1.906,0.07-3.221,0.105-3.943,0.105c-0.59,0-0.943-0.041-1.061-0.123c-0.074-0.055-0.111-0.127-0.111-0.217
		c0-0.184,0.158-0.336,0.475-0.457c0.594-0.234,1.871-0.521,3.832-0.861C18.056,3.734,19.181,3.586,19.728,3.586z M14.501,1.898
		c0.211-0.023,0.453,0.15,0.727,0.521c0.195,0.273,0.293,0.52,0.293,0.738c0,0.258-0.201,0.451-0.604,0.58
		c-0.363,0.117-0.803,0.176-1.318,0.176c-0.387,0-0.58-0.1-0.58-0.299c0-0.309,0.271-0.738,0.814-1.289
		C14.099,2.061,14.321,1.918,14.501,1.898z M17.864,5.836C18.048,7.59,18.14,8.701,18.14,9.17c0,0.316-0.117,0.563-0.352,0.738
		c-0.441,0.328-1.002,0.492-1.682,0.492c-0.652,0-0.979-0.27-0.979-0.809c0-0.34,0.168-1.564,0.504-3.674l0.34-0.012
		C17.104,5.867,17.735,5.844,17.864,5.836z M15.919,3.82L16.065,3c0.219-1.238,0.355-1.941,0.41-2.109
		c0.078-0.238,0.211-0.357,0.398-0.357c0.184,0,0.307,0.111,0.369,0.334C17.341,1.195,17.46,2,17.601,3.281
		c0.012,0.102,0.021,0.184,0.029,0.246c-0.191,0.031-0.568,0.096-1.131,0.193L15.919,3.82z M19.464,1.547
		c0.215,0,0.455,0.133,0.721,0.398c0.266,0.262,0.398,0.516,0.398,0.762c0,0.223-0.121,0.385-0.363,0.486
		c-0.148,0.063-0.404,0.121-0.768,0.176c-0.305,0.043-0.574,0.064-0.809,0.064c-0.348,0-0.521-0.117-0.521-0.352
		c0-0.211,0.16-0.518,0.48-0.92C18.927,1.752,19.214,1.547,19.464,1.547z M18.632,5.777c0.199,0,0.668,0.254,1.406,0.762
		c0.551,0.379,0.965,0.703,1.242,0.973c0.254,0.25,0.381,0.471,0.381,0.662c0,0.242-0.172,0.467-0.516,0.674
		c-0.43,0.262-0.855,0.393-1.277,0.393c-0.301,0-0.527-0.098-0.68-0.293c-0.168-0.219-0.357-0.686-0.568-1.4
		c-0.227-0.758-0.34-1.215-0.34-1.371C18.28,5.91,18.397,5.777,18.632,5.777z"/>
	<path d="M24.995,5.959c0.168,0,0.324,0.125,0.469,0.375c0.137,0.238,0.205,0.453,0.205,0.645c0,0.387-0.262,0.822-0.785,1.307
		c-0.516,0.48-0.938,0.721-1.266,0.721c-0.152,0-0.229-0.074-0.229-0.223c0-0.273,0.266-0.902,0.797-1.887
		c0.219-0.406,0.381-0.664,0.486-0.773C24.782,6.014,24.89,5.959,24.995,5.959z M26.671,3.17c0.336,0,0.625,0.109,0.867,0.328
		c0.215,0.191,0.322,0.408,0.322,0.65c0,0.262-0.273,0.484-0.82,0.668c-0.348,0.113-0.895,0.221-1.641,0.322
		c-0.492,0.07-0.873,0.105-1.143,0.105c-0.344,0-0.516-0.078-0.516-0.234c0-0.211,0.332-0.549,0.996-1.014
		C25.53,3.445,26.175,3.17,26.671,3.17z M24.948,1.711c0.098,0,0.191,0.053,0.281,0.158c0.238,0.27,0.357,0.566,0.357,0.891
		c0,0.223-0.113,0.395-0.34,0.516c-0.234,0.125-0.5,0.188-0.797,0.188c-0.305,0-0.457-0.109-0.457-0.328
		c0-0.27,0.148-0.611,0.445-1.025C24.63,1.844,24.8,1.711,24.948,1.711z M24.819,8.602c0.691-0.594,1.037-1.131,1.037-1.611
		c0-0.367-0.135-0.699-0.404-0.996c-0.09-0.102-0.18-0.17-0.27-0.205c0.008-0.055,0.014-0.096,0.018-0.123l0.047-0.305
		c0.445-0.055,0.947-0.143,1.506-0.264l0.018,0.369c-0.121-0.016-0.203-0.023-0.246-0.023c-0.281,0-0.422,0.145-0.422,0.434
		c0,0.195,0.072,0.441,0.217,0.738c0.16,0.328,0.34,0.537,0.539,0.627c0.012,0.281,0.02,0.492,0.023,0.633
		c0.023,0.484,0.035,0.785,0.035,0.902c0,0.617-0.156,1.043-0.469,1.277c-0.332,0.25-0.699,0.375-1.102,0.375
		c-0.211,0-0.367-0.057-0.469-0.17c-0.09-0.102-0.135-0.281-0.135-0.539C24.743,9.404,24.769,9.031,24.819,8.602z M25.522,3.322
		l0.018-0.105l0.018-0.105l0.293-1.588c0.125-0.676,0.209-1.063,0.252-1.16c0.035-0.086,0.086-0.129,0.152-0.129
		c0.063,0,0.107,0.027,0.135,0.082c0.047,0.078,0.082,0.26,0.105,0.545l0.059,0.727l0.088,1.383
		C26.255,3.018,25.882,3.135,25.522,3.322z M26.606,5.643c0.203,0,0.449,0.045,0.738,0.135c0.363,0.117,0.545,0.309,0.545,0.574
		c0,0.25-0.098,0.457-0.293,0.621c-0.102,0.086-0.219,0.129-0.352,0.129c-0.242,0-0.445-0.145-0.609-0.434
		c-0.184-0.328-0.275-0.59-0.275-0.785C26.36,5.723,26.442,5.643,26.606,5.643z M27.556,1.512c0.109,0,0.213,0.051,0.311,0.152
		C28.089,1.883,28.2,2.121,28.2,2.379c0,0.141-0.049,0.252-0.146,0.334c-0.176,0.145-0.43,0.217-0.762,0.217
		c-0.375,0-0.563-0.113-0.563-0.34c0-0.223,0.133-0.494,0.398-0.814C27.272,1.6,27.415,1.512,27.556,1.512z M32.226,7.787
		c0.355,0,0.715,0.107,1.078,0.322c0.457,0.27,0.686,0.543,0.686,0.82c0,0.289-0.301,0.492-0.902,0.609
		c-0.316,0.063-0.865,0.117-1.646,0.164c-0.723,0.043-1.371,0.064-1.945,0.064c-0.902,0-1.516-0.027-1.84-0.082
		c-0.223-0.035-0.334-0.117-0.334-0.246c0-0.219,0.396-0.471,1.189-0.756c0.941-0.336,1.811-0.584,2.607-0.744
		C31.61,7.838,31.979,7.787,32.226,7.787z M29.583,2.994c0.145,0.105,0.348,0.158,0.609,0.158c0.469,0,0.922-0.102,1.359-0.305
		c0.223-0.102,0.379-0.24,0.469-0.416c0.262,0.016,0.5,0.072,0.715,0.17c0.242,0.113,0.445,0.25,0.609,0.41
		c0.176,0.172,0.264,0.336,0.264,0.492c0,0.266-0.258,0.455-0.773,0.568c-0.277,0.059-0.75,0.111-1.418,0.158
		c-0.621,0.039-1.178,0.059-1.67,0.059c-0.777,0-1.305-0.025-1.582-0.076c-0.191-0.039-0.287-0.119-0.287-0.24
		C27.878,3.711,28.446,3.385,29.583,2.994z M29.272,4.857c0.141,0,0.305,0.129,0.492,0.387c0.324,0.441,0.486,0.859,0.486,1.254
		c0,0.285-0.217,0.514-0.65,0.686c-0.383,0.152-0.748,0.229-1.096,0.229c-0.332,0-0.498-0.146-0.498-0.439
		c0-0.34,0.201-0.832,0.604-1.477C28.876,5.07,29.097,4.857,29.272,4.857z M30.901,0.75c0.145,0,0.301,0.088,0.469,0.264
		c0.121,0.129,0.232,0.291,0.334,0.486c0.113,0.215,0.17,0.408,0.17,0.58c0,0.285-0.23,0.504-0.691,0.656
		c-0.359,0.117-0.695,0.176-1.008,0.176c-0.367,0-0.551-0.131-0.551-0.393c0-0.211,0.145-0.551,0.434-1.02
		C30.362,1,30.644,0.75,30.901,0.75z M32.255,4.418c0.137,0,0.256,0.129,0.357,0.387c0.258,0.66,0.387,1.221,0.387,1.682
		c0,0.34-0.197,0.594-0.592,0.762c-0.328,0.141-0.654,0.211-0.979,0.211c-0.441,0-0.662-0.156-0.662-0.469
		c0-0.32,0.213-0.848,0.639-1.582C31.788,4.748,32.071,4.418,32.255,4.418z"/>
</g>
</svg>
