<?xml version="1.0" encoding="utf-8"?>
<!-- Generator: Adobe Illustrator 14.0.0, SVG Export Plug-In . SVG Version: 6.00 Build 43363)  -->
<!DOCTYPE svg PUBLIC "-//W3C//DTD SVG 1.1//EN" "http://www.w3.org/Graphics/SVG/1.1/DTD/svg11.dtd">
<svg version="1.1" id="图层_1" xmlns="http://www.w3.org/2000/svg" xmlns:xlink="http://www.w3.org/1999/xlink" x="0px" y="0px"
	 width="42.084px" height="44px" viewBox="0 0 42.084 44" enable-background="new 0 0 42.084 44" xml:space="preserve">
<g id="FPO">
</g>
<g id="Global_Nav_Small_Icons">
</g>
<g id="Global_Nav_Small_1_">
</g>
<g id="Bag">
</g>
<g id="Global_Nav_Large_Icons">
	<path id="Search_1_" fill="#FFFFFF" d="M18,29.293l-4.438-4.406C14.457,23.838,15,22.481,15,20.999C15,17.691,12.309,15,9,15
		c-3.31,0-6,2.691-6,5.999C3,24.309,5.691,27,9,27c1.467,0,2.811-0.531,3.854-1.408L17.293,30L18,29.293z M9,26
		c-2.763,0-5-2.241-5-5.001C4,18.238,6.238,16,9,16c2.761,0,5,2.238,5,4.999C14,23.759,11.761,26,9,26z"/>
</g>
<g id="Global_Nav_Large_1_">
</g>
<g id="Guides">
</g>
<polyline fill="none" stroke="#FFFFFF" stroke-width="0.75" points="21.704,15.188 25.33,15.188 29.122,25.821 38.766,25.821 "/>
<polygon fill="#FFFFFF" points="27.462,16.313 30.291,24.09 39.715,24.09 40.827,17.065 "/>
<circle fill="#FFFFFF" cx="30.484" cy="28.83" r="1.526"/>
<circle fill="#FFFFFF" cx="37.078" cy="28.83" r="1.525"/>
</svg>
